<?xml version="1.0" standalone="no"?>
<!DOCTYPE svg PUBLIC "-//W3C//DTD SVG 20010904//EN"
 "http://www.w3.org/TR/2001/REC-SVG-20010904/DTD/svg10.dtd">
<svg version="1.0" xmlns="http://www.w3.org/2000/svg"
 width="500.000000pt" height="500.000000pt" viewBox="0 0 500.000000 500.000000"
 preserveAspectRatio="xMidYMid meet">
<metadata>
Created by potrace 1.14, written by Peter Selinger 2001-2017
</metadata>
<g transform="translate(0.000000,500.000000) scale(0.100000,-0.100000)"
fill="#000000" stroke="none">
<path d="M2004 3790 c-1 -42 8 -49 59 -42 24 4 27 8 27 43 l0 39 -43 0 -42 0
-1 -40z"/>
<path d="M2150 3746 l0 -84 83 0 82 -1 0 85 1 84 -83 0 -83 0 0 -84z"/>
<path d="M1880 3728 l0 -43 40 0 c22 0 40 3 41 7 0 5 1 23 2 41 1 31 -1 32
-41 35 l-42 3 0 -43z"/>
<path d="M1978 3652 c-27 -3 -28 -5 -28 -65 l0 -62 60 -1 c33 0 60 2 61 5 0 4
2 31 3 63 l3 56 -36 4 c-20 1 -48 2 -63 0z"/>
<path d="M2330 3605 l0 -42 43 0 44 -1 -1 42 -1 41 -42 0 -43 1 0 -41z"/>
<path d="M2553 3538 l-113 -82 0 -68 0 -68 -97 0 c-82 0 -102 -4 -123 -20
l-25 -20 68 0 67 0 0 -130 0 -130 -80 0 -80 0 0 -480 c0 -280 4 -480 9 -480 5
0 71 45 148 99 l138 99 -1 161 c0 153 0 160 17 149 10 -7 56 -39 103 -72 l84
-58 261 187 262 187 -3 226 -3 226 -245 177 c-135 98 -252 178 -260 178 -8 0
-66 -37 -127 -81z m237 -349 c55 -39 101 -78 101 -87 1 -9 2 -45 3 -78 l1 -61
-114 -83 -114 -82 -61 43 c-33 23 -79 56 -102 73 l-40 30 0 84 1 84 100 73
c55 41 105 74 112 74 7 1 57 -31 113 -70z"/>
<path d="M2142 3558 c3 -43 3 -43 38 -40 41 5 48 13 42 52 -4 27 -8 30 -44 30
l-39 0 3 -42z"/>
<path d="M2279 3486 c-7 -4 -3 -119 4 -123 14 -9 90 -10 107 -2 13 6 17 47 11
114 -1 7 -109 17 -122 11z"/>
<path d="M1874 3462 c-18 -3 -22 -10 -22 -43 l-1 -39 43 0 44 0 0 39 c1 41
-14 51 -64 43z"/>
<path d="M1998 3427 c-2 -7 -3 -39 -3 -72 l0 -60 70 0 70 0 3 71 3 71 -70 1
c-46 1 -70 -3 -73 -11z"/>
<path d="M1816 3320 c-2 -3 -3 -32 -2 -64 l1 -60 40 1 c94 2 86 -4 83 65 l-3
63 -58 0 c-32 1 -60 -2 -61 -5z"/>
<path d="M2118 3233 c0 -5 -2 -45 -2 -90 l-2 -83 93 0 92 0 -1 90 -1 90 -89 0
c-48 0 -89 -3 -90 -7z"/>
<path d="M1757 1852 c-32 -4 -44 -23 -45 -74 -2 -43 25 -68 70 -68 23 0 27 -4
24 -22 -3 -13 -5 -25 -5 -27 -1 -3 -10 5 -20 16 -28 29 -70 20 -66 -14 1 -14
9 -29 16 -34 21 -13 113 -11 127 3 7 7 12 33 12 60 0 37 -4 50 -20 58 -10 6
-23 10 -27 9 -25 -4 -41 3 -46 21 -7 25 13 38 25 16 5 -9 22 -16 38 -16 25 0
30 4 30 24 0 13 -6 28 -12 34 -16 12 -63 19 -101 14z"/>
<path d="M1929 1852 l-25 -3 0 -114 1 -115 27 0 c30 0 32 8 29 85 l-2 30 15
-30 c9 -16 20 -42 25 -57 8 -22 17 -28 41 -28 l31 0 -3 117 -3 117 -25 1 c-23
0 -25 -5 -31 -60 -3 -33 -7 -53 -8 -45 -1 8 -12 35 -24 60 -19 38 -26 45 -48
42z"/>
<path d="M2165 1849 c-16 -3 -27 -7 -23 -8 3 0 0 -25 -9 -53 -8 -29 -19 -71
-24 -93 -5 -22 -12 -48 -15 -57 -8 -27 49 -24 67 2 16 22 59 18 59 -6 0 -9 12
-14 34 -14 l34 0 -29 112 c-16 61 -32 114 -34 117 -8 8 -27 8 -60 0z m35 -126
c0 -15 -6 -23 -16 -23 -11 0 -14 5 -10 16 3 9 6 25 6 37 0 18 2 19 10 7 5 -8
10 -25 10 -37z"/>
<path d="M2315 1851 c-3 -2 -5 -56 -5 -118 l0 -114 32 3 c29 3 32 6 32 37 1
30 5 35 26 36 62 4 70 12 70 73 0 79 -6 85 -84 86 -37 1 -69 0 -71 -3z m91
-77 c1 -22 -4 -30 -18 -31 -11 -1 -18 5 -18 17 0 53 34 66 36 14z"/>
<path d="M2602 1849 c-12 -5 -23 -14 -23 -21 -9 -89 3 -116 53 -114 27 0 34
-3 36 -22 3 -22 -22 -33 -30 -13 -5 15 -58 22 -59 8 -3 -27 4 -52 15 -59 18
-12 111 -9 124 4 7 7 12 33 12 60 0 52 -15 68 -64 68 -21 0 -26 5 -26 25 0 27
17 34 26 10 4 -9 19 -15 35 -15 25 0 29 4 29 29 0 22 -6 32 -22 37 -33 10 -82
12 -106 3z"/>
<path d="M2807 1852 c-15 -2 -31 -11 -36 -20 -15 -29 -10 -181 6 -198 21 -20
116 -19 134 2 16 19 19 188 4 203 -12 11 -69 18 -108 13z m51 -114 c2 -52 0
-67 -13 -71 -13 -5 -15 5 -15 69 0 56 3 75 13 72 7 -3 13 -29 15 -70z"/>
<path d="M2960 1738 l0 -118 33 0 c31 0 32 1 31 40 0 22 1 40 3 40 2 0 10 -18
19 -40 14 -36 20 -40 50 -40 19 0 34 2 34 5 0 3 -9 22 -20 42 -16 31 -17 38
-5 47 15 12 18 25 16 76 -2 56 -11 62 -90 64 l-71 2 0 -118z m94 56 c11 -28 6
-44 -13 -44 -16 0 -19 6 -16 28 2 15 4 28 4 30 3 9 20 -1 25 -14z"/>
<path d="M3144 1851 c-13 -13 -1 -40 19 -43 21 -3 22 -7 22 -96 l0 -92 33 0
32 0 0 95 c0 94 0 95 24 95 19 0 24 5 23 20 -1 11 -4 20 -7 21 -19 3 -142 3
-146 0z"/>
</g>
</svg>
